<svg width="16" height="16" viewBox="0 0 16 16" fill="none" xmlns="http://www.w3.org/2000/svg">
<path d="M4.64314 2H11.3578C11.4055 2.33066 11.5237 2.64722 11.7043 2.92827C11.8849 3.20932 12.1237 3.44831 12.4047 3.62908C12.6856 3.80985 13.0021 3.92818 13.3328 3.97607C13.6634 4.02396 14.0004 4.00029 14.3211 3.90667C14.2618 4.48084 13.9917 5.01263 13.563 5.39926C13.1344 5.78589 12.5777 5.99993 12.0005 6H4.00047C3.42323 5.99993 2.86651 5.78589 2.43789 5.39926C2.00927 5.01263 1.73918 4.48084 1.6798 3.90667C2.0005 4.00029 2.33756 4.02396 2.66819 3.97607C2.99882 3.92818 3.31531 3.80985 3.59626 3.62908C3.87721 3.44831 4.11606 3.20932 4.29667 2.92827C4.47728 2.64722 4.59543 2.33066 4.64314 2ZM15.3198 7.40733C14.8608 7.66745 14.3175 7.73563 13.8084 7.59702C13.2993 7.45842 12.8656 7.12426 12.6018 6.66733H3.39914C3.1353 7.12444 2.70148 7.45873 2.19223 7.59734C1.68298 7.73596 1.13958 7.66766 0.680469 7.40733C0.62646 7.89035 0.724632 8.37818 0.961277 8.80271C1.19792 9.22723 1.56123 9.56727 2.00047 9.77533V13C2.00047 13.5523 2.44818 14 3.00047 14H5.00047C5.55275 14 6.00047 13.5523 6.00047 13V12.6667C6.00047 12.1362 6.21118 11.6275 6.58625 11.2525C6.96133 10.8774 7.47004 10.6667 8.00047 10.6667C8.5309 10.6667 9.03961 10.8774 9.41468 11.2525C9.78975 11.6275 10.0005 12.1362 10.0005 12.6667V13C10.0005 13.5523 10.4482 14 11.0005 14H13.0005C13.5528 14 14.0005 13.5523 14.0005 13V9.776C14.4397 9.56779 14.8029 9.22761 15.0395 8.80296C15.276 8.3783 15.374 7.89038 15.3198 7.40733Z" fill="#9C724E"/>
</svg>
