<svg width="16" height="17" viewBox="0 0 16 17" fill="none" xmlns="http://www.w3.org/2000/svg">
<path d="M5.25977 11.1431C5.25977 11.7716 5.25969 12.0859 5.3418 12.2544C5.42941 12.4363 5.5811 12.5794 5.76758 12.6567C5.95419 12.7341 6.16284 12.74 6.35352 12.6733C6.53017 12.6117 6.75289 12.3902 7.19727 11.9458C7.40273 11.7403 7.50593 11.6361 7.61523 11.5786C7.73346 11.5161 7.8653 11.4839 7.99902 11.4839C8.13294 11.4839 8.2654 11.516 8.38379 11.5786C8.4931 11.6361 8.59644 11.7395 8.80273 11.9458C9.24648 12.3895 9.46897 12.6119 9.64648 12.6743C9.83699 12.7408 10.045 12.7349 10.2314 12.6577C10.4181 12.5804 10.5705 12.4374 10.6582 12.2554C10.7403 12.086 10.7402 11.7715 10.7402 11.1431L10.7393 8.12939H14.5752V11.4175C14.5752 12.9673 14.5744 13.7416 14.0928 14.2231C13.6111 14.7045 12.8369 14.7046 11.2871 14.7046H4.71191C3.16212 14.7046 2.38783 14.7047 1.90625 14.2231C1.42467 13.7416 1.4248 12.9673 1.4248 11.4175V8.12939H5.25977V11.1431Z" fill="#7B8990"/>
<path d="M10.7471 2.37646C11.4194 2.37646 11.7552 2.37654 12.0576 2.50146C12.3591 2.62639 12.5967 2.86459 13.0723 3.33936L13.6113 3.87842C14.0872 4.35346 14.3244 4.59241 14.4502 4.89404C14.575 5.19638 14.5752 5.53173 14.5752 6.20361V6.48584H1.4248V6.20361C1.4248 5.53163 1.42495 5.19641 1.5498 4.89404C1.67473 4.59241 1.91265 4.35346 2.3877 3.87842L2.92676 3.33936C3.4018 2.86431 3.64075 2.62639 3.94238 2.50146C4.24393 2.37661 4.58079 2.37646 5.25195 2.37646H10.7471Z" fill="#7B8990"/>
</svg>
