<svg width="16" height="16" viewBox="0 0 16 16" fill="none" xmlns="http://www.w3.org/2000/svg">
<path fill-rule="evenodd" clip-rule="evenodd" d="M7.53896 1.13118C7.67737 1.04543 7.83696 1 7.99978 1C8.1626 1 8.32219 1.04543 8.46059 1.13118L14.5854 4.92271C14.7693 5.03615 14.9047 5.21365 14.9656 5.42101C15.0265 5.62836 15.0084 5.8509 14.915 6.04576C14.8215 6.24062 14.6593 6.394 14.4595 6.47636C14.2597 6.55871 14.0365 6.56422 13.8329 6.49182V13.2501H14.1245C14.3566 13.2501 14.5792 13.3422 14.7432 13.5063C14.9073 13.6704 14.9995 13.893 14.9995 14.125C14.9995 14.3571 14.9073 14.5796 14.7432 14.7437C14.5792 14.9078 14.3566 15 14.1245 15H1.87501C1.64295 15 1.4204 14.9078 1.25631 14.7437C1.09222 14.5796 1.00004 14.3571 1.00004 14.125C1.00004 13.893 1.09222 13.6704 1.25631 13.5063C1.4204 13.3422 1.64295 13.2501 1.87501 13.2501H2.16666V6.49182C1.96305 6.56422 1.73984 6.55871 1.54005 6.47636C1.34026 6.394 1.17801 6.24062 1.08456 6.04576C0.991119 5.8509 0.973091 5.62836 1.03395 5.42101C1.09481 5.21365 1.23026 5.03615 1.41419 4.92271L7.53896 1.13118ZM3.9166 8.87523C3.9166 8.64317 4.00878 8.42062 4.17287 8.25653C4.33696 8.09244 4.55951 8.00026 4.79156 8.00026C5.02362 8.00026 5.24617 8.09244 5.41026 8.25653C5.57435 8.42062 5.66653 8.64317 5.66653 8.87523V12.3751C5.66653 12.6072 5.57435 12.8297 5.41026 12.9938C5.24617 13.1579 5.02362 13.2501 4.79156 13.2501C4.55951 13.2501 4.33696 13.1579 4.17287 12.9938C4.00878 12.8297 3.9166 12.6072 3.9166 12.3751V8.87523ZM7.99978 8.00026C7.76772 8.00026 7.54517 8.09244 7.38108 8.25653C7.21699 8.42062 7.12481 8.64317 7.12481 8.87523V12.3751C7.12481 12.6072 7.21699 12.8297 7.38108 12.9938C7.54517 13.1579 7.76772 13.2501 7.99978 13.2501C8.23183 13.2501 8.45438 13.1579 8.61847 12.9938C8.78256 12.8297 8.87474 12.6072 8.87474 12.3751V8.87523C8.87474 8.64317 8.78256 8.42062 8.61847 8.25653C8.45438 8.09244 8.23183 8.00026 7.99978 8.00026ZM10.333 8.87523C10.333 8.64317 10.4252 8.42062 10.5893 8.25653C10.7534 8.09244 10.9759 8.00026 11.208 8.00026C11.44 8.00026 11.6626 8.09244 11.8267 8.25653C11.9908 8.42062 12.083 8.64317 12.083 8.87523V12.3751C12.083 12.6072 11.9908 12.8297 11.8267 12.9938C11.6626 13.1579 11.44 13.2501 11.208 13.2501C10.9759 13.2501 10.7534 13.1579 10.5893 12.9938C10.4252 12.8297 10.333 12.6072 10.333 12.3751V8.87523ZM7.99978 5.66701C8.30919 5.66701 8.60592 5.5441 8.8247 5.32532C9.04349 5.10653 9.1664 4.8098 9.1664 4.50039C9.1664 4.19098 9.04349 3.89425 8.8247 3.67546C8.60592 3.45668 8.30919 3.33377 7.99978 3.33377C7.69037 3.33377 7.39363 3.45668 7.17485 3.67546C6.95607 3.89425 6.83315 4.19098 6.83315 4.50039C6.83315 4.8098 6.95607 5.10653 7.17485 5.32532C7.39363 5.5441 7.69037 5.66701 7.99978 5.66701Z" fill="#7B8990"/>
</svg>
