<svg width="16" height="16" viewBox="0 0 16 16" fill="none" xmlns="http://www.w3.org/2000/svg">
<path fill-rule="evenodd" clip-rule="evenodd" d="M11.4858 7.61253C11.4773 5.66756 11.4054 4.21892 11.3366 3.26387C11.3031 2.76813 11.0935 2.30069 10.7457 1.94592C10.3978 1.59114 9.93454 1.37242 9.43955 1.32921C8.62094 1.25341 7.51217 1.17822 6.33246 1.17822C5.15911 1.17822 4.0555 1.2525 3.2384 1.328C2.74021 1.37235 2.27426 1.59322 1.92454 1.95078C1.57482 2.30834 1.36433 2.77907 1.33103 3.27812C1.25705 4.31503 1.17822 5.9092 1.17822 8C1.17822 10.8048 1.24917 12.8671 1.2898 13.8143C1.30154 14.0859 1.41784 14.3424 1.61438 14.5301C1.81092 14.7179 2.07247 14.8224 2.34429 14.8218H13.3947C13.7443 14.8228 14.0807 14.6882 14.3332 14.4464C14.5856 14.2046 14.7346 13.8744 14.7487 13.525C14.7812 12.7064 14.8218 11.3927 14.8218 9.97074C14.8218 8.87744 14.7739 7.89298 14.7223 7.14925C14.6496 6.10143 13.8334 5.27008 12.7789 5.19671C12.6427 5.18741 12.4987 5.17831 12.3471 5.16942C12.3763 5.96772 12.3963 6.91094 12.3963 8C12.3963 10.1254 12.3584 11.7753 12.322 12.8662C12.318 12.9849 12.2678 13.0973 12.182 13.1794C12.0962 13.2615 11.9818 13.3068 11.8631 13.3057C11.7443 13.3045 11.6308 13.257 11.5466 13.1732C11.4625 13.0895 11.4144 12.9761 11.4127 12.8574C11.4645 11.2388 11.4892 9.61944 11.4867 8C11.4867 7.86862 11.4864 7.73946 11.4858 7.61253ZM4.66491 3.75534C4.82573 3.75534 4.97997 3.81923 5.09369 3.93294C5.2074 4.04666 5.27129 4.2009 5.27129 4.36172V4.9681C5.27129 5.12892 5.2074 5.28316 5.09369 5.39688C4.97997 5.51059 4.82573 5.57448 4.66491 5.57448C4.50409 5.57448 4.34985 5.51059 4.23614 5.39688C4.12242 5.28316 4.05853 5.12892 4.05853 4.9681V4.36172C4.05853 4.2009 4.12242 4.04666 4.23614 3.93294C4.34985 3.81923 4.50409 3.75534 4.66491 3.75534ZM5.27129 7.69681C5.27129 7.53599 5.2074 7.38176 5.09369 7.26804C4.97997 7.15432 4.82573 7.09043 4.66491 7.09043C4.50409 7.09043 4.34985 7.15432 4.23614 7.26804C4.12242 7.38176 4.05853 7.53599 4.05853 7.69681V8.30319C4.05853 8.46402 4.12242 8.61825 4.23614 8.73197C4.34985 8.84569 4.50409 8.90957 4.66491 8.90957C4.82573 8.90957 4.97997 8.84569 5.09369 8.73197C5.2074 8.61825 5.27129 8.46402 5.27129 8.30319V7.69681ZM8 3.75534C8.16083 3.75534 8.31506 3.81923 8.42878 3.93294C8.5425 4.04666 8.60638 4.2009 8.60638 4.36172V4.9681C8.60638 5.12892 8.5425 5.28316 8.42878 5.39688C8.31506 5.51059 8.16083 5.57448 8 5.57448C7.83918 5.57448 7.68495 5.51059 7.57123 5.39688C7.45751 5.28316 7.39362 5.12892 7.39362 4.9681V4.36172C7.39362 4.2009 7.45751 4.04666 7.57123 3.93294C7.68495 3.81923 7.83918 3.75534 8 3.75534ZM8.60638 7.69681C8.60638 7.53599 8.5425 7.38176 8.42878 7.26804C8.31506 7.15432 8.16083 7.09043 8 7.09043C7.83918 7.09043 7.68495 7.15432 7.57123 7.26804C7.45751 7.38176 7.39362 7.53599 7.39362 7.69681V8.30319C7.39362 8.46402 7.45751 8.61825 7.57123 8.73197C7.68495 8.84569 7.83918 8.90957 8 8.90957C8.16083 8.90957 8.31506 8.84569 8.42878 8.73197C8.5425 8.61825 8.60638 8.46402 8.60638 8.30319V7.69681ZM6.48405 10.2739C6.15752 10.2739 5.89586 10.2936 5.68818 10.3224C5.14668 10.397 4.86017 10.8606 4.84046 11.3609C4.82294 11.8574 4.81495 12.3542 4.81651 12.851C4.81651 13.2067 4.81954 13.5084 4.82409 13.7636C4.82488 13.8033 4.8412 13.8411 4.86954 13.8689C4.89789 13.8967 4.93599 13.9122 4.97568 13.9122H7.99242C8.03211 13.9122 8.07022 13.8967 8.09856 13.8689C8.1269 13.8411 8.14323 13.8033 8.14402 13.7636C8.14857 13.5084 8.1516 13.2067 8.1516 12.851C8.1516 12.1771 8.14099 11.6971 8.12765 11.3609C8.10794 10.8606 7.82142 10.397 7.27993 10.3224C7.01607 10.2879 6.75015 10.2717 6.48405 10.2739Z" fill="#7CC8C8"/>
</svg>
