<svg width="16" height="16" viewBox="0 0 16 16" fill="none" xmlns="http://www.w3.org/2000/svg">
<path d="M10.45 1C11.8031 1 12.9 2.0969 12.9 3.45C12.9 3.60875 12.8849 3.76398 12.856 3.91432L12.8456 3.96059C14.0974 4.3773 15 5.55825 15 6.95C15 8.26187 14.1981 9.38642 13.0577 9.86018L12.2975 14.4151C12.2412 14.7526 11.9492 15 11.607 15H4.39299C4.0508 15 3.75877 14.7526 3.70251 14.4151L2.9824 10.0958C1.87424 10.0326 1 9.11839 1 8C1 7.08482 1.58539 6.30642 2.40214 6.01874L2.4 5.9C2.4 3.5804 4.2804 1.7 6.6 1.7C7.24512 1.7 7.85629 1.84545 8.4025 2.10536C8.83916 1.43979 9.5932 1 10.45 1ZM7.3 10.8C7.3 10.4134 6.9866 10.1 6.6 10.1C6.2134 10.1 5.9 10.4134 5.9 10.8V12.9C5.9 13.2866 6.2134 13.6 6.6 13.6C6.9866 13.6 7.3 13.2866 7.3 12.9V10.8ZM10.1 10.8C10.1 10.4134 9.7866 10.1 9.4 10.1C9.0134 10.1 8.7 10.4134 8.7 10.8V12.9C8.7 13.2866 9.0134 13.6 9.4 13.6C9.7866 13.6 10.1 13.2866 10.1 12.9V10.8ZM11.85 8.7C12.8165 8.7 13.6 7.91649 13.6 6.95C13.6 5.9835 12.8165 5.2 11.85 5.2C11.615 5.2 11.3892 5.24563 11.1809 5.33271L11.0582 5.3899C10.3815 5.73852 9.55771 5.48116 9.19413 4.82701L9.14534 4.73089C8.69132 3.74476 7.70446 3.1 6.6 3.1C5.10046 3.1 3.87624 4.27878 3.80322 5.73724L3.79977 5.87476L3.80191 5.9935C3.81211 6.55889 3.48174 7.07082 2.97162 7.29769L2.86725 7.3392C2.58985 7.43692 2.4 7.70054 2.4 8C2.4 8.38661 2.7134 8.7 3.1 8.7H11.85Z" fill="#DA8D39"/>
</svg>
