<svg width="16" height="16" viewBox="0 0 16 16" fill="none" xmlns="http://www.w3.org/2000/svg">
<path d="M10.9169 13.5456C10.2714 13.5456 9.75027 12.8923 9.75027 12.0834C9.75027 11.2823 10.2714 10.629 10.9169 10.629C11.5624 10.629 12.0835 11.2823 12.0835 12.0834C12.0835 12.8923 11.5624 13.5456 10.9169 13.5456ZM8.00031 7.41687C7.03589 7.41687 6.25036 6.76355 6.25036 5.96246C6.25036 5.1536 7.03589 4.50028 8.00031 4.50028C8.96473 4.50028 9.75027 5.1536 9.75027 5.96246C9.75027 6.76355 8.96473 7.41687 8.00031 7.41687ZM5.08372 13.5456C4.43818 13.5456 3.91709 12.8923 3.91709 12.0834C3.91709 11.2823 4.43818 10.629 5.08372 10.629C5.72926 10.629 6.25036 11.2823 6.25036 12.0834C6.25036 12.8923 5.72926 13.5456 5.08372 13.5456ZM8.00031 5.0836C8.31919 5.0836 8.58363 5.34804 8.58363 5.66692C8.58363 5.9858 8.31919 6.25023 8.00031 6.25023C7.68143 6.25023 7.41699 5.9858 7.41699 5.66692C7.41699 5.34804 7.68143 5.0836 8.00031 5.0836ZM13.2502 8.00019C13.0013 8.00019 12.7602 8.05463 12.5424 8.15574C12.1691 7.68131 11.6635 7.27687 11.0569 6.96577C11.5002 6.34356 11.7647 5.58914 11.7647 4.7725V4.72583C12.6124 4.54695 13.2502 3.79252 13.2502 2.88255C13.2502 1.84813 12.4024 1.00037 11.368 1.00037C10.8313 1.00037 10.3336 1.22592 10.0069 1.58369C9.40708 1.20246 8.71105 1 8.00031 1C7.28957 1 6.59354 1.20246 5.9937 1.58369C5.66704 1.22592 5.16928 1.00037 4.63262 1.00037C3.59821 1.00037 2.75045 1.84813 2.75045 2.88255C2.75045 3.78474 3.38821 4.53917 4.22819 4.72583V4.7725C4.22819 5.58914 4.50041 6.35134 4.93595 6.96577C4.33708 7.27687 3.83153 7.68131 3.45821 8.15574C3.19242 8.03601 2.90084 7.98489 2.61018 8.00706C2.31951 8.02922 2.03906 8.12397 1.7945 8.28263C1.54994 8.44128 1.34911 8.65876 1.21039 8.91515C1.07167 9.17153 0.999502 9.45863 1.0005 9.75014C1.0005 10.7223 1.77826 11.5001 2.75045 11.5001H2.79712C2.76601 11.6868 2.75045 11.889 2.75045 12.0834C2.75045 13.6934 3.79265 15 5.08372 15C5.86926 15 6.56146 14.51 6.98923 13.7634C7.31589 13.81 7.65032 13.8334 8.00031 13.8334C8.3503 13.8334 8.68474 13.81 9.0114 13.7634C9.43916 14.51 10.1314 15 10.9169 15C12.208 15 13.2502 13.6934 13.2502 12.0834C13.2502 11.889 13.2346 11.6868 13.2035 11.5001H13.2502C14.2224 11.5001 15.0001 10.7223 15.0001 9.75014C15.0001 8.77794 14.2224 8.00019 13.2502 8.00019Z" fill="#5494CF"/>
</svg>
