<svg width="16" height="16" viewBox="0 0 16 16" fill="none" xmlns="http://www.w3.org/2000/svg">
<path fill-rule="evenodd" clip-rule="evenodd" d="M8 14.9207C11.8661 14.9207 15 11.7868 15 7.92065C15 4.05455 11.8661 0.920654 8 0.920654C4.1339 0.920654 1 4.05455 1 7.92065C1 11.7868 4.1339 14.9207 8 14.9207ZM5.879 5.65055C5.83282 5.47163 5.71776 5.31823 5.55892 5.2238C5.40009 5.12937 5.21036 5.10158 5.03111 5.14649C4.85186 5.19139 4.69764 5.30535 4.60208 5.46351C4.50652 5.62166 4.47738 5.81119 4.521 5.99075L4.654 6.52065H4.5C4.31435 6.52065 4.1363 6.5944 4.00503 6.72568C3.87375 6.85696 3.8 7.035 3.8 7.22065C3.8 7.40631 3.87375 7.58435 4.00503 7.71563C4.1363 7.8469 4.31435 7.92065 4.5 7.92065H5.004L5.179 8.62065H4.5C4.31435 8.62065 4.1363 8.6944 4.00503 8.82568C3.87375 8.95695 3.8 9.135 3.8 9.32065C3.8 9.50631 3.87375 9.68435 4.00503 9.81563C4.1363 9.9469 4.31435 10.0207 4.5 10.0207H5.529L5.8629 11.3577C6.0491 12.1046 7.0963 12.1452 7.3399 11.4137L8 9.43405L8.6601 11.4137C8.9037 12.1452 9.9509 12.1046 10.1371 11.3577L10.4717 10.0207H11.5C11.6857 10.0207 11.8637 9.9469 11.995 9.81563C12.1263 9.68435 12.2 9.50631 12.2 9.32065C12.2 9.135 12.1263 8.95695 11.995 8.82568C11.8637 8.6944 11.6857 8.62065 11.5 8.62065H10.821L10.996 7.92065H11.5C11.6857 7.92065 11.8637 7.8469 11.995 7.71563C12.1263 7.58435 12.2 7.40631 12.2 7.22065C12.2 7.035 12.1263 6.85696 11.995 6.72568C11.8637 6.5944 11.6857 6.52065 11.5 6.52065H11.346L11.479 5.99075C11.5021 5.90134 11.5072 5.80824 11.4942 5.71682C11.4811 5.6254 11.4501 5.53747 11.4029 5.4581C11.3557 5.37872 11.2933 5.30946 11.2192 5.25432C11.1451 5.19917 11.0609 5.15923 10.9713 5.13679C10.8817 5.11435 10.7886 5.10985 10.6973 5.12356C10.606 5.13727 10.5183 5.16892 10.4392 5.21667C10.3602 5.26443 10.2914 5.32735 10.2368 5.40182C10.1821 5.47628 10.1428 5.56082 10.121 5.65055L9.3041 8.91885L8.6643 6.99945C8.61794 6.85992 8.52882 6.73852 8.40958 6.65248C8.29034 6.56645 8.14704 6.52015 8 6.52015C7.85296 6.52015 7.70966 6.56645 7.59042 6.65248C7.47118 6.73852 7.38206 6.85992 7.3357 6.99945L6.6959 8.91885L5.879 5.65055Z" fill="#7B8990"/>
</svg>
