<svg width="16" height="16" viewBox="0 0 16 16" fill="none" xmlns="http://www.w3.org/2000/svg">
<g clip-path="url(#clip0_2296_57662)">
<path fill-rule="evenodd" clip-rule="evenodd" d="M8.00684 0.834023C8.39635 0.838921 8.78027 0.931706 9.12891 1.10551C9.47744 1.27938 9.78322 1.5298 10.0215 1.83793C10.2596 2.14605 10.4254 2.50479 10.5059 2.88578C10.5862 3.2668 10.5796 3.66201 10.4863 4.04008L9.9707 6.16703H13.2207C13.5051 6.16712 13.7866 6.23416 14.041 6.36137C14.2951 6.48862 14.517 6.67311 14.6875 6.90043C14.8581 7.12801 14.9735 7.39307 15.0244 7.67289C15.0752 7.95263 15.06 8.24076 14.9805 8.51371L13.4277 13.8467C13.3166 14.2273 13.0847 14.5629 12.7676 14.8008C12.4504 15.0387 12.0635 15.1669 11.667 15.167H2.66699C2.18109 15.1669 1.71479 14.9734 1.37109 14.6299C1.02748 14.2862 0.833121 13.82 0.833008 13.334V8.00102C0.833008 7.51479 1.02728 7.04796 1.37109 6.70414C1.71481 6.36053 2.18097 6.16712 2.66699 6.16703H4.50684C4.6616 6.16686 4.81375 6.12355 4.94531 6.04203C5.07689 5.9604 5.18396 5.84375 5.25293 5.70512L7.55371 1.11039L7.58984 1.04887C7.68361 0.913733 7.83933 0.831951 8.00684 0.834023ZM2.66699 7.16703C2.44619 7.16712 2.23431 7.25509 2.07812 7.41117C1.92185 7.56745 1.83398 7.78 1.83398 8.00102V13.334C1.8341 13.5548 1.92205 13.7667 2.07812 13.9229C2.23428 14.0788 2.44631 14.1669 2.66699 14.167H4.16699V7.16703H2.66699Z" fill="#3B4553"/>
</g>
<defs>
<clipPath id="clip0_2296_57662">
<rect width="16" height="16" fill="white"/>
</clipPath>
</defs>
</svg>
