<svg width="16" height="16" viewBox="0 0 16 16" fill="none" xmlns="http://www.w3.org/2000/svg">
<path fill-rule="evenodd" clip-rule="evenodd" d="M1.76414 1C1.86448 1 1.96385 1.01943 2.05656 1.05719C2.14927 1.09494 2.23351 1.15028 2.30446 1.22005C2.37542 1.28981 2.43171 1.37263 2.47011 1.46378C2.50851 1.55493 2.52827 1.65263 2.52827 1.75129V4.25558C2.5283 4.58729 2.62405 4.91218 2.8044 5.19252C2.98475 5.47286 3.2423 5.69713 3.54712 5.8393V1.75129C3.54712 1.55203 3.62763 1.36094 3.77093 1.22005C3.91424 1.07915 4.1086 1 4.31126 1C4.51392 1 4.70828 1.07915 4.85158 1.22005C4.99489 1.36094 5.07539 1.55203 5.07539 1.75129V5.8393C5.38022 5.69713 5.63777 5.47286 5.81812 5.19252C5.99847 4.91218 6.09422 4.58729 6.09424 4.25558V1.75129C6.09424 1.55203 6.17475 1.36094 6.31805 1.22005C6.46136 1.07915 6.65572 1 6.85838 1C7.06104 1 7.2554 1.07915 7.39871 1.22005C7.54201 1.36094 7.62252 1.55203 7.62252 1.75129V4.25558C7.62245 4.94381 7.40054 5.61431 6.98867 6.1708C6.5768 6.72729 5.99615 7.14113 5.33011 7.35289V13.9983C5.33011 14.264 5.22276 14.5187 5.03169 14.7066C4.84062 14.8945 4.58147 15 4.31126 15C4.04104 15 3.78189 14.8945 3.59082 14.7066C3.39975 14.5187 3.29241 14.264 3.29241 13.9983V7.35389C2.6262 7.14208 2.04544 6.72808 1.63355 6.1714C1.22166 5.61471 0.999856 4.94398 1 4.25558V1.75129C1 1.55203 1.08051 1.36094 1.22381 1.22005C1.36711 1.07915 1.56148 1 1.76414 1ZM12.0036 1C10.1982 1 9.00713 2.72997 9.00713 4.49499C9.00713 5.9014 9.76312 7.28578 10.9837 7.79064V13.9983C10.9837 14.264 11.091 14.5187 11.2821 14.7066C11.4732 14.8945 11.7323 15 12.0025 15C12.2728 15 12.5319 14.8945 12.723 14.7066C12.9141 14.5187 13.0214 14.264 13.0214 13.9983V7.78964C14.244 7.28578 15 5.9014 15 4.49399C15 2.72997 13.8079 1 12.0036 1Z" fill="#DA8D39"/>
</svg>
