<svg width="16" height="16" viewBox="0 0 16 16" fill="none" xmlns="http://www.w3.org/2000/svg">
<path d="M1.9084 3.32095C1.9084 2.33779 2.72289 1.53845 3.72469 1.53845H8.26542C9.26722 1.53845 10.0817 2.33779 10.0817 3.32095V8.66843C11.461 8.66843 12.2756 9.76566 12.2756 11.1192V12.0105C12.2756 12.3809 12.5792 12.6789 12.9567 12.6789C13.3341 12.6789 13.6378 12.3809 13.6378 12.0105V7.79657C12.8545 7.59882 12.2756 6.89975 12.2756 6.06978V4.28728L11.3674 3.39604C11.1177 3.15094 11.1177 2.74988 11.3674 2.50479C11.6172 2.2597 12.0258 2.2597 12.2756 2.50479L14.4693 4.65771C14.8099 4.99192 15 5.4459 15 5.91938V12.0133C15 13.1218 14.0862 14.0186 12.9567 14.0186C11.8272 14.0186 10.9133 13.1218 10.9133 12.0133V11.122C10.9133 10.5065 10.7089 10.008 10.0817 10.008L10.0815 12.679C10.5838 12.679 10.9896 13.0773 10.9896 13.5703C10.9896 14.0633 10.5838 14.4615 10.0815 14.4615L1.90815 14.4587C1.40583 14.4587 1 14.0605 1 13.5675C1 13.0745 1.40583 12.6763 1.90815 12.6763L1.9084 3.32095ZM3.72469 3.76657V6.44031C3.72469 6.6854 3.92902 6.88593 4.17877 6.88593H7.81135C8.06109 6.88593 8.26542 6.6854 8.26542 6.44031V3.76657C8.26542 3.52148 8.06109 3.32095 7.81135 3.32095H4.17877C3.92902 3.32095 3.72469 3.52148 3.72469 3.76657Z" fill="#729AAC"/>
</svg>
