<svg width="16" height="16" viewBox="0 0 16 16" fill="none" xmlns="http://www.w3.org/2000/svg">
<path d="M4.11111 2.75C4.11111 1.78477 4.80868 1 5.66667 1H10.3333C11.1913 1 11.8889 1.78477 11.8889 2.75V4.5H13.4444C14.3024 4.5 15 5.28477 15 6.25V13.25C15 14.2152 14.3024 15 13.4444 15H2.55556C1.69757 15 1 14.2152 1 13.25V6.25C1 5.28477 1.69757 4.5 2.55556 4.5H4.11111V2.75ZM7.61111 10.625C7.1809 10.625 6.83333 11.016 6.83333 11.5V13.6875H9.16667V11.5C9.16667 11.016 8.8191 10.625 8.38889 10.625H7.61111ZM4.11111 11.0625V10.1875C4.11111 9.94687 3.93611 9.75 3.72222 9.75H2.94444C2.73056 9.75 2.55556 9.94687 2.55556 10.1875V11.0625C2.55556 11.3031 2.73056 11.5 2.94444 11.5H3.72222C3.93611 11.5 4.11111 11.3031 4.11111 11.0625ZM3.72222 8C3.93611 8 4.11111 7.80312 4.11111 7.5625V6.6875C4.11111 6.44688 3.93611 6.25 3.72222 6.25H2.94444C2.73056 6.25 2.55556 6.44688 2.55556 6.6875V7.5625C2.55556 7.80312 2.73056 8 2.94444 8H3.72222ZM13.4444 11.0625V10.1875C13.4444 9.94687 13.2694 9.75 13.0556 9.75H12.2778C12.0639 9.75 11.8889 9.94687 11.8889 10.1875V11.0625C11.8889 11.3031 12.0639 11.5 12.2778 11.5H13.0556C13.2694 11.5 13.4444 11.3031 13.4444 11.0625ZM13.0556 8C13.2694 8 13.4444 7.80312 13.4444 7.5625V6.6875C13.4444 6.44688 13.2694 6.25 13.0556 6.25H12.2778C12.0639 6.25 11.8889 6.44688 11.8889 6.6875V7.5625C11.8889 7.80312 12.0639 8 12.2778 8H13.0556ZM7.41667 3.84375V4.71875H6.63889C6.425 4.71875 6.25 4.91563 6.25 5.15625V5.59375C6.25 5.83437 6.425 6.03125 6.63889 6.03125H7.41667V6.90625C7.41667 7.14687 7.59167 7.34375 7.80556 7.34375H8.19444C8.40833 7.34375 8.58333 7.14687 8.58333 6.90625V6.03125H9.36111C9.575 6.03125 9.75 5.83437 9.75 5.59375V5.15625C9.75 4.91563 9.575 4.71875 9.36111 4.71875H8.58333V3.84375C8.58333 3.60313 8.40833 3.40625 8.19444 3.40625H7.80556C7.59167 3.40625 7.41667 3.60313 7.41667 3.84375Z" fill="#7B8990"/>
</svg>
