<svg width="16" height="16" viewBox="0 0 16 16" fill="none" xmlns="http://www.w3.org/2000/svg">
<path d="M15.4961 7.98617C15.4961 8.43809 15.1053 8.7921 14.6625 8.7921H13.829L13.8472 12.8142C13.8524 13.7055 13.1048 14.4286 12.1801 14.4286H3.8342C2.91469 14.4286 2.1671 13.708 2.1671 12.8217V8.79461H1.33355C0.864678 8.79461 0.5 8.44312 0.5 7.98868C0.5 7.76272 0.578145 7.56187 0.760484 7.38612L7.43669 1.77226C7.61903 1.59652 7.82742 1.57141 8.00975 1.57141C8.19209 1.57141 8.40048 1.62162 8.55677 1.74716L15.2095 7.38361C15.4179 7.55936 15.5221 7.76021 15.4961 7.98617ZM9.66643 7.19531C9.66643 6.76916 9.49079 6.36045 9.17815 6.05911C8.86551 5.75777 8.44148 5.58848 7.99934 5.58848C7.55719 5.58848 7.13316 5.75777 6.82052 6.05911C6.50788 6.36045 6.33224 6.76916 6.33224 7.19531C6.33224 7.62147 6.50788 8.03017 6.82052 8.33151C7.13316 8.63285 7.55719 8.80214 7.99934 8.80214C8.44148 8.80214 8.86551 8.63285 9.17815 8.33151C9.49079 8.03017 9.66643 7.62147 9.66643 7.19531ZM7.16579 9.60556C6.01445 9.60556 5.08191 10.5044 5.08191 11.6141C5.08191 11.835 5.26946 12.0158 5.49869 12.0158H10.5C10.7292 12.0158 10.9168 11.835 10.9168 11.6141C10.9168 10.5044 9.98422 9.60556 8.83288 9.60556H7.16579Z" fill="#9A90D8"/>
</svg>
