<svg width="16" height="16" viewBox="0 0 16 16" fill="none" xmlns="http://www.w3.org/2000/svg">
<path d="M14.8999 6.23942L12.7999 2.73942C12.7377 2.63589 12.6498 2.55021 12.5446 2.49072C12.4395 2.43122 12.3208 2.39995 12.2 2.39992H8.9898L8.4949 1.90502C8.36363 1.77379 8.18561 1.70007 8 1.70007C7.81438 1.70007 7.63637 1.77379 7.5051 1.90502L7.0102 2.39992H3.8C3.67921 2.39995 3.56049 2.43122 3.45537 2.49072C3.35024 2.55021 3.26231 2.63589 3.2001 2.73942L1.1001 6.23942C1.03513 6.34842 1.00102 6.47303 1.0014 6.59992H1V13.5999C1 13.7856 1.07375 13.9636 1.20503 14.0949C1.3363 14.2262 1.51435 14.2999 1.7 14.2999H14.3C14.4857 14.2999 14.6637 14.2262 14.795 14.0949C14.9263 13.9636 15 13.7856 15 13.5999V6.59992H14.9986C14.9986 6.47532 14.9664 6.35072 14.8999 6.23942ZM13.6 12.8999H9.4V10.0999H6.6V12.8999H2.4V7.29992H4.0898L8 3.38972L11.9102 7.29992H13.6V12.8999Z" fill="#3FA9E9"/>
<path d="M7.99967 8.28559C8.81346 8.28559 9.47317 7.62589 9.47317 6.8121C9.47317 5.9983 8.81346 5.3386 7.99967 5.3386C7.18588 5.3386 6.52617 5.9983 6.52617 6.8121C6.52617 7.62589 7.18588 8.28559 7.99967 8.28559Z" fill="#3FA9E9"/>
<path d="M3.79966 8.00002H5.19966V10.1H3.79966V8.00002ZM10.7997 8.00002H12.1997V10.1H10.7997V8.00002Z" fill="#3FA9E9"/>
</svg>
