<svg width="57" height="24" viewBox="0 0 57 24" fill="none" xmlns="http://www.w3.org/2000/svg">
<g clip-path="url(#clip0_3016_99739)">
<path d="M50.5576 1.86719V11.3603" stroke="#3B4553" stroke-width="1.875" stroke-linecap="round" stroke-linejoin="round"/>
<path d="M54.5396 1.28125V12.5883" stroke="#3B4553" stroke-width="1.875" stroke-linecap="round" stroke-linejoin="round"/>
<path d="M54.5396 7.19141L50.5576 7.19141" stroke="#3B4553" stroke-width="1.875" stroke-linecap="round" stroke-linejoin="round"/>
<path d="M4.84912 3.93359H15.3281V8.46848C15.3281 10.855 13.3511 12.7918 10.9151 12.7918H4.84912V3.93359Z" stroke="#3B4553" stroke-width="1.95" stroke-linecap="round" stroke-linejoin="round"/>
<path d="M10.5312 15.5625V20.0955" stroke="#3B4553" stroke-width="1.95" stroke-linecap="round" stroke-linejoin="round"/>
<path d="M1.69385 20.0952C1.69385 20.0952 22.4193 23.2992 22.4193 12.7422" stroke="#3B4553" stroke-width="1.95" stroke-linecap="round" stroke-linejoin="round"/>
<path d="M19.7898 12.276C19.5228 11.417 19.4208 10.3209 19.4448 9.42571C19.5291 6.31751 21.0048 4.45312 23.8518 4.45312C26.6988 4.45312 28.3488 6.51969 28.1688 10.0309C28.0821 11.7215 27.5528 14.685 24.8118 15.5501" stroke="#3B4553" stroke-width="1.95" stroke-linecap="round" stroke-linejoin="round"/>
<path d="M43.1723 12.4365C40.5481 12.4365 38.8169 11.3929 38.8169 9.07568C38.8169 6.75844 40.5481 5.71484 43.1723 5.71484C45.7966 5.71484 47.5278 6.75844 47.5278 9.07568C47.5278 11.3929 45.7966 12.4365 43.1723 12.4365Z" stroke="#3B4553" stroke-width="1.875" stroke-linecap="round" stroke-linejoin="round"/>
<path d="M30.3199 1.4992C30.3199 1.4992 34.6129 -0.216799 34.6759 5.9812C34.6879 7.1572 34.4337 8.10442 33.5277 9.49642C31.8597 12.0554 28.9197 11.2966 29.3877 9.56242C29.8557 7.82831 35.3681 7.37245 35.2167 10.8764C35.3967 16.1864 33.16 20.0199 35.161 21.5439C37.3167 23.1857 42.1388 22.5768 43.9069 18.2979C44.873 15.9601 46.148 14.6379 49.013 14.6379C52.025 14.6379 53.7855 15.3566 53.7855 17.9816C53.7855 20.6066 51.7545 21.6416 48.6795 21.6416C47.7807 21.6416 46.9723 21.5401 46.2775 21.3324" stroke="#3B4553" stroke-width="1.95" stroke-linecap="round" stroke-linejoin="round"/>
<path d="M44.2414 1.12109L46.1614 3.26909H39.2734" stroke="#3B4553" stroke-width="1.875" stroke-linecap="round" stroke-linejoin="round"/>
</g>
<defs>
<clipPath id="clip0_3016_99739">
<rect width="56" height="24" fill="white" transform="translate(0.109375)"/>
</clipPath>
</defs>
</svg>
