<svg width="16" height="16" viewBox="0 0 16 16" fill="none" xmlns="http://www.w3.org/2000/svg">
<path d="M8 1.00006C11.8661 1.00006 15 4.13396 15 8.00006C15 11.8662 11.8661 15.0001 8 15.0001C4.1339 15.0001 1 11.8662 1 8.00006C1 4.13396 4.1339 1.00006 8 1.00006ZM9.05 4.50006H7.3C6.9287 4.50006 6.5726 4.64756 6.31005 4.91011C6.0475 5.17266 5.9 5.52876 5.9 5.90006V10.8001C5.9 10.9857 5.97375 11.1638 6.10503 11.295C6.2363 11.4263 6.41435 11.5001 6.6 11.5001C6.78565 11.5001 6.9637 11.4263 7.09497 11.295C7.22625 11.1638 7.3 10.9857 7.3 10.8001V9.40006H9.05C9.69978 9.40006 10.3229 9.14194 10.7824 8.68247C11.2419 8.22301 11.5 7.59984 11.5 6.95006C11.5 6.30028 11.2419 5.67711 10.7824 5.21765C10.3229 4.75819 9.69978 4.50006 9.05 4.50006ZM9.05 5.90006C9.32848 5.90006 9.59555 6.01069 9.79246 6.2076C9.98938 6.40451 10.1 6.67158 10.1 6.95006C10.1 7.22854 9.98938 7.49561 9.79246 7.69252C9.59555 7.88944 9.32848 8.00006 9.05 8.00006H7.3V5.90006H9.05Z" fill="#729AAC"/>
</svg>
