<svg width="16" height="16" viewBox="0 0 16 16" fill="none" xmlns="http://www.w3.org/2000/svg">
<path fill-rule="evenodd" clip-rule="evenodd" d="M7.51883 2.41721C9.36184 0.871368 12.1098 1.11119 13.6566 2.9538C15.2032 4.79685 14.9627 7.54605 13.12 9.09253L8.14652 13.2661C6.30308 14.8129 3.5543 14.5716 2.00779 12.7285C0.461156 10.8853 0.702499 8.13745 2.54538 6.59079L7.51883 2.41721ZM6.9482 6.61682C6.67525 6.29192 6.19018 6.25 5.86502 6.52272C5.54008 6.7957 5.4981 7.28074 5.77091 7.6059L7.73106 9.94247C8.00406 10.2673 8.48912 10.3093 8.81425 10.0366C9.13912 9.76366 9.18195 9.27855 8.90935 8.95338L6.9482 6.61682Z" fill="#7B8990"/>
</svg>
