<svg width="16" height="16" viewBox="0 0 16 16" fill="none" xmlns="http://www.w3.org/2000/svg">
<path d="M2.94691 8.78765V10.6693C2.94691 11.1581 3.21476 11.6134 3.64331 11.8478L6.99139 13.6758C7.39316 13.8968 7.87528 13.8968 8.27705 13.6758L11.6251 11.8478C12.0537 11.6134 12.3215 11.1581 12.3215 10.6693V8.78765L8.27705 10.9974C7.87528 11.2184 7.39316 11.2184 6.99139 10.9974L2.94691 8.78765ZM6.99139 2.31916L1.34653 5.39939C0.884491 5.65384 0.884491 6.32346 1.34653 6.57791L6.99139 9.65815C7.39316 9.87912 7.87528 9.87912 8.27705 9.65815L13.6608 6.71853V10.676C13.6608 11.0443 13.9621 11.3456 14.3304 11.3456C14.6987 11.3456 15 11.0443 15 10.676V6.38373C15 6.13597 14.8661 5.91499 14.6518 5.79446L8.27705 2.31916C8.07921 2.21364 7.85844 2.15845 7.63422 2.15845C7.41 2.15845 7.18923 2.21364 6.99139 2.31916Z" fill="#5494CF"/>
</svg>
