<svg width="16" height="16" viewBox="0 0 16 16" fill="none" xmlns="http://www.w3.org/2000/svg">
<path fill-rule="evenodd" clip-rule="evenodd" d="M5.43793 2.12739C5.55783 1.79577 5.77042 1.5104 6.04753 1.30907C6.32464 1.10774 6.65321 0.999958 6.9897 1H9.35838C9.6915 0.999803 10.017 1.10529 10.2925 1.30275C10.5681 1.50022 10.7809 1.78053 10.9035 2.10726C11.5146 2.29998 12.0581 2.67897 12.4656 3.19657C12.8732 3.71417 13.1265 4.34729 13.1939 5.01634L13.3485 6.50007C14.1501 6.56449 14.76 7.34158 14.654 8.19317L13.9927 13.4486L13.986 13.506C13.9717 13.6369 13.9478 13.8553 13.8696 14.0536C13.7851 14.2654 13.657 14.4548 13.4946 14.608C13.3322 14.7612 13.1395 14.8744 12.9305 14.9394C12.732 14.9998 12.5297 14.9978 12.4056 14.9968H3.97111C3.77859 15.0083 3.58553 14.9889 3.3985 14.9394C3.18968 14.8743 2.99719 14.761 2.83495 14.6078C2.67271 14.4546 2.54477 14.2653 2.46038 14.0536C2.37067 13.8261 2.34395 13.5563 2.32868 13.3933L2.31914 13.3057L1.68832 8.29383C1.66357 8.13342 1.6594 7.97023 1.67591 7.80865C1.72078 7.46339 1.87676 7.14488 2.11774 6.90646C2.35872 6.66805 2.67005 6.52422 2.99958 6.49906L3.15419 5.01533C3.22495 4.3511 3.4791 3.72341 3.88509 3.21019C4.29109 2.69696 4.83104 2.31979 5.43793 2.12739ZM5.58299 3.6836C5.30929 3.82342 5.07355 4.03397 4.89769 4.29566C4.72182 4.55736 4.61155 4.86171 4.57712 5.18041L4.43969 6.49503H11.9084L11.771 5.18041V5.17639C11.739 4.85692 11.6309 4.55118 11.4567 4.28769C11.2824 4.0242 11.0478 3.81153 10.7746 3.66951C10.626 3.92492 10.4178 4.13586 10.1698 4.28214C9.92189 4.42842 9.64249 4.50514 9.35838 4.50498H6.9897C6.70846 4.50492 6.43185 4.42951 6.18581 4.28585C5.93976 4.14218 5.73234 3.93495 5.58299 3.6836ZM5.65648 9.49772C5.65648 9.33087 5.59364 9.17085 5.48178 9.05286C5.36992 8.93488 5.21821 8.8686 5.06001 8.8686C4.90182 8.8686 4.75011 8.93488 4.63825 9.05286C4.52639 9.17085 4.46355 9.33087 4.46355 9.49772V11.9961C4.46355 12.163 4.52639 12.323 4.63825 12.441C4.75011 12.5589 4.90182 12.6252 5.06001 12.6252C5.21821 12.6252 5.36992 12.5589 5.48178 12.441C5.59364 12.323 5.65648 12.163 5.65648 11.9961V9.49772ZM8.17404 8.8686C8.50329 8.8686 8.7705 9.15045 8.7705 9.49772V11.9961C8.7705 12.163 8.70766 12.323 8.5958 12.441C8.48394 12.5589 8.33223 12.6252 8.17404 12.6252C8.01585 12.6252 7.86413 12.5589 7.75227 12.441C7.64042 12.323 7.57757 12.163 7.57757 11.9961V9.49672C7.57757 9.14944 7.84479 8.8686 8.17404 8.8686ZM11.8855 9.49672C11.8855 9.32986 11.8226 9.16984 11.7108 9.05186C11.5989 8.93387 11.4472 8.86759 11.289 8.86759C11.1308 8.86759 10.9791 8.93387 10.8673 9.05186C10.7554 9.16984 10.6926 9.32986 10.6926 9.49672V11.9951C10.6926 12.162 10.7554 12.322 10.8673 12.44C10.9791 12.5579 11.1308 12.6242 11.289 12.6242C11.4472 12.6242 11.5989 12.5579 11.7108 12.44C11.8226 12.322 11.8855 12.162 11.8855 11.9951V9.49672Z" fill="#FEAB38"/>
</svg>
