<svg width="16" height="16" viewBox="0 0 16 16" fill="none" xmlns="http://www.w3.org/2000/svg">
<path d="M12.9 1.34998H3.1C1.9422 1.34998 1 2.29218 1 3.44998V5.43168C1 6.16878 1.2674 6.83868 1.7 7.35388V13.95C1.7 14.1356 1.77375 14.3137 1.90503 14.445C2.0363 14.5762 2.21435 14.65 2.4 14.65H8C8.18565 14.65 8.3637 14.5762 8.49497 14.445C8.62625 14.3137 8.7 14.1356 8.7 13.95V10.45H11.5V13.95C11.5 14.1356 11.5737 14.3137 11.705 14.445C11.8363 14.5762 12.0143 14.65 12.2 14.65H13.6C13.7857 14.65 13.9637 14.5762 14.095 14.445C14.2263 14.3137 14.3 14.1356 14.3 13.95V7.35318C14.7326 6.83868 15 6.16878 15 5.43098V3.44998C15 2.29218 14.0578 1.34998 12.9 1.34998ZM13.6 3.44998V5.43168C13.6 6.22968 13.0057 6.91008 12.2763 6.94858L12.2 6.94998C11.4279 6.94998 10.8 6.32208 10.8 5.54998V2.74998H12.9C13.2864 2.74998 13.6 3.06428 13.6 3.44998ZM6.6 5.54998V2.74998H9.4V5.54998C9.4 6.32208 8.7721 6.94998 8 6.94998C7.2279 6.94998 6.6 6.32208 6.6 5.54998ZM2.4 3.44998C2.4 3.06428 2.7136 2.74998 3.1 2.74998H5.2V5.54998C5.2 6.32208 4.5721 6.94998 3.8 6.94998L3.7237 6.94788C2.9943 6.91008 2.4 6.22968 2.4 5.43168V3.44998ZM6.6 11.15H3.8V9.04998H6.6V11.15Z" fill="#FEAB38"/>
</svg>
