<svg width="16" height="16" viewBox="0 0 16 16" fill="none" xmlns="http://www.w3.org/2000/svg">
<path d="M0.925293 13.5851V5.69692C0.925293 4.69469 1.18469 3.82523 1.7035 3.08853C2.2223 2.35183 2.95334 1.79458 3.89662 1.4168C4.53333 1.16919 5.21131 1.01308 5.93056 0.948464C6.64981 0.88385 7.33958 0.851307 7.99987 0.850835C8.66017 0.850363 9.34994 0.882907 10.0692 0.948464C10.7884 1.01402 11.4664 1.17013 12.1031 1.4168C13.0464 1.79411 13.7774 2.35135 14.2963 3.08853C14.8151 3.8257 15.0745 4.69516 15.0745 5.69692V13.5851C15.0745 13.9742 14.936 14.3074 14.6592 14.5847C14.3823 14.862 14.0491 15.0005 13.6595 15H2.34021C1.95111 15 1.61813 14.8616 1.34128 14.5847C1.06443 14.3079 0.925765 13.9747 0.925293 13.5851ZM4.81631 8.63287V5.80304H11.1834V8.63287H4.81631ZM10.476 11.109C10.2755 11.109 10.1076 11.0411 9.97227 10.9052C9.83691 10.7694 9.76899 10.6015 9.76852 10.4015C9.76805 10.2015 9.83596 10.0336 9.97227 9.89781C10.1086 9.76198 10.2765 9.69406 10.476 9.69406C10.6755 9.69406 10.8436 9.76198 10.9804 9.89781C11.1172 10.0336 11.1849 10.2015 11.1834 10.4015C11.182 10.6015 11.1141 10.7696 10.9797 10.9059C10.8453 11.0422 10.6774 11.1099 10.476 11.109ZM5.52377 11.109C5.32332 11.109 5.15542 11.0411 5.02006 10.9052C4.8847 10.7694 4.81678 10.6015 4.81631 10.4015C4.81584 10.2015 4.88376 10.0336 5.02006 9.89781C5.15636 9.76198 5.32427 9.69406 5.52377 9.69406C5.72327 9.69406 5.89141 9.76198 6.02819 9.89781C6.16496 10.0336 6.23264 10.2015 6.23123 10.4015C6.22981 10.6015 6.1619 10.7696 6.02748 10.9059C5.89306 11.0422 5.72516 11.1099 5.52377 11.109ZM7.00943 12.5239H8.95494L9.85695 13.4259C9.91591 13.4849 9.97793 13.5261 10.043 13.5497C10.1081 13.5733 10.1758 13.5851 10.2461 13.5851C10.4819 13.5851 10.6439 13.4731 10.7321 13.249C10.8203 13.025 10.7821 12.8305 10.6175 12.6654L10.4406 12.4885C10.9594 12.4178 11.3898 12.185 11.7317 11.7903C12.0737 11.3955 12.2446 10.9326 12.2446 10.4015V5.80304C12.2446 4.88335 11.8319 4.29969 11.0066 4.05208C10.1812 3.80447 9.17897 3.68067 7.99987 3.68067C6.9269 3.68067 5.95131 3.80447 5.07312 4.05208C4.19493 4.29969 3.7556 4.88335 3.75513 5.80304V10.4015C3.75513 10.9321 3.92609 11.395 4.26803 11.7903C4.60997 12.1855 5.04034 12.4182 5.55914 12.4885L5.36459 12.6831C5.19952 12.8481 5.16132 13.0396 5.24998 13.2575C5.33865 13.4754 5.50066 13.5846 5.73601 13.5851C5.80675 13.5851 5.8716 13.5733 5.93056 13.5497C5.98951 13.5261 6.04847 13.4849 6.10742 13.4259L7.00943 12.5239Z" fill="#4B96F3"/>
</svg>
