<svg width="29" height="28" viewBox="0 0 29 28" fill="none" xmlns="http://www.w3.org/2000/svg">
<g clip-path="url(#clip0_3016_99726)">
<path d="M25.1748 0.623693C25.8127 -0.0141633 26.8468 -0.0141655 27.4847 0.623691C28.1225 1.26155 28.1225 2.29572 27.4847 2.93357L2.89738 27.5209C2.25952 28.1587 1.22535 28.1587 0.587496 27.5209C-0.0503607 26.883 -0.0503594 25.8489 0.587497 25.211L25.1748 0.623693Z" fill="#FA6060"/>
<path d="M24.8429 1.63333C24.8429 0.731268 25.5742 0 26.4763 0C27.3783 0 28.1096 0.731269 28.1096 1.63333V11.2055C28.1096 12.1075 27.3783 12.8388 26.4763 12.8388C25.5742 12.8388 24.8429 12.1075 24.8429 11.2055V1.63333Z" fill="#FA6060"/>
<path d="M21.2168 14.3815C21.8546 13.7436 22.8888 13.7436 23.5267 14.3815C24.1645 15.0194 24.1645 16.0535 23.5267 16.6914L12.6975 27.5206C12.0596 28.1584 11.0255 28.1584 10.3876 27.5206C9.74975 26.8827 9.74975 25.8485 10.3876 25.2107L21.2168 14.3815Z" fill="#A159DB"/>
<path d="M15.6113 0.49869C16.2492 -0.139167 17.2834 -0.139165 17.9212 0.498691C18.5591 1.13655 18.5591 2.17072 17.9212 2.80857L3.0088 17.721C2.37094 18.3588 1.33678 18.3588 0.698919 17.721C0.0610627 17.0831 0.0610627 16.049 0.698919 15.4111L15.6113 0.49869Z" fill="#FDC200"/>
<circle cx="21.3423" cy="26.3677" r="1.63333" fill="#131416"/>
<path d="M24.5 20.901C25.1378 20.2632 26.172 20.2632 26.8098 20.901C27.4477 21.5389 27.4477 22.5731 26.8098 23.2109L22.4976 27.5232C21.8597 28.161 20.8256 28.161 20.1877 27.5232C19.5499 26.8853 19.5499 25.8511 20.1877 25.2133L24.5 20.901Z" fill="#F63FB6"/>
<path d="M5.67605 0.510409C6.31391 -0.127448 7.34808 -0.127447 7.98593 0.51041C8.62379 1.14827 8.62379 2.18244 7.98593 2.82029L2.88299 7.92324C2.24513 8.5611 1.21096 8.56109 0.573107 7.92324C-0.0647499 7.28538 -0.0647492 6.25121 0.573107 5.61336L5.67605 0.510409Z" fill="#15BA96"/>
<circle cx="1.74271" cy="6.76615" r="1.63333" fill="#131416"/>
<circle cx="1.74271" cy="16.5669" r="1.63333" fill="#131416"/>
<circle cx="11.542" cy="26.3677" r="1.63333" fill="#131416"/>
<circle cx="21.3423" cy="26.3677" r="1.63333" fill="#131416"/>
<circle cx="1.74271" cy="26.3677" r="1.63333" fill="#131416"/>
</g>
<defs>
<clipPath id="clip0_3016_99726">
<rect width="28" height="28" fill="white" transform="translate(0.109375)"/>
</clipPath>
</defs>
</svg>
