<svg width="16" height="16" viewBox="0 0 16 16" fill="none" xmlns="http://www.w3.org/2000/svg">
<path fill-rule="evenodd" clip-rule="evenodd" d="M6.59722 2.40009H9.40278C12.0473 2.40009 13.3696 2.40009 14.1907 3.22047C14.8067 3.83436 14.9607 4.72825 14.9999 6.24583C15.0048 6.44042 14.8452 6.59582 14.6569 6.64552C14.3571 6.72359 14.0916 6.89892 13.9021 7.14403C13.7126 7.38913 13.6098 7.69018 13.6097 8C13.6097 8.65029 14.0535 9.19698 14.6555 9.35448C14.8445 9.40348 15.0041 9.55887 14.9985 9.75347C14.96 11.2724 14.8053 12.1656 14.1907 12.7795C13.3689 13.5999 12.0473 13.5999 9.40278 13.5999H6.59722C3.95266 13.5999 2.63038 13.5999 1.8093 12.7795C1.19331 12.1656 1.03931 11.2717 1.00011 9.75417C0.99521 9.55887 1.15481 9.40418 1.3431 9.35448C1.64293 9.2764 1.90838 9.10108 2.09788 8.85597C2.28738 8.61086 2.39022 8.30982 2.39029 8C2.39029 7.34971 1.9465 6.80302 1.3445 6.64552C1.15551 6.59652 0.99591 6.44042 1.00151 6.24653C1.04001 4.72755 1.19471 3.83436 1.8093 3.22047C2.63108 2.40009 3.95266 2.40009 6.59722 2.40009ZM8.66779 6.73932L8.59919 6.61612C8.33249 6.13803 8.1995 5.90003 8 5.90003C7.8005 5.90003 7.66751 6.13803 7.40081 6.61612L7.33221 6.73932C7.25661 6.87512 7.21881 6.94231 7.15931 6.98711C7.09981 7.03191 7.02632 7.04871 6.87932 7.08161L6.74632 7.11241C6.22833 7.22931 5.96933 7.28741 5.90843 7.48481C5.84683 7.6829 6.02323 7.8887 6.37603 8.30029L6.46702 8.40669C6.56712 8.52359 6.61752 8.58169 6.63992 8.65449C6.66232 8.72729 6.65532 8.80499 6.63992 8.96108L6.62592 9.10318C6.57272 9.65267 6.54612 9.92777 6.70712 10.0496C6.86812 10.1714 7.11031 10.0601 7.59541 9.83747L7.7207 9.78007C7.8579 9.71707 7.9272 9.68557 8 9.68557C8.0728 9.68557 8.1421 9.71707 8.27999 9.78007L8.40459 9.83747C8.88969 10.0608 9.13188 10.1714 9.29288 10.0496C9.45388 9.92777 9.42728 9.65267 9.37408 9.10318L9.36008 8.96108C9.34468 8.80499 9.33768 8.72729 9.36008 8.65449C9.38248 8.58169 9.43288 8.52359 9.53298 8.40669L9.62397 8.30029C9.97677 7.8887 10.1532 7.6829 10.0916 7.48481C10.03 7.28741 9.77167 7.22931 9.25368 7.11241L9.12068 7.08161C8.97368 7.04871 8.89949 7.03261 8.84069 6.98711C8.78119 6.94231 8.74339 6.87512 8.66779 6.73932Z" fill="#BE92BE"/>
</svg>
